<?xml version="1.0" encoding="utf-8"?>
<!-- Generator: Adobe Illustrator 21.0.0, SVG Export Plug-In . SVG Version: 6.00 Build 0)  -->
<svg version="1.1" id="Layer_1" xmlns="http://www.w3.org/2000/svg" xmlns:xlink="http://www.w3.org/1999/xlink" x="0px" y="0px"
	 viewBox="0 0 250 100" style="enable-background:new 0 0 250 100;" xml:space="preserve">
<style type="text/css">
	.st0{fill:#FFFFFF;}
	.st1{fill:#279DBA;}
	.st2{fill:#F68D93;}
	.st3{opacity:0.75;fill:#E721ED;}
	.st4{opacity:0.75;fill:#F68D93;}
</style>
<rect class="st0" width="250" height="100"/>
<g>
	<path class="st1" d="M85.2,85.3c0-0.1,0.1-0.3,0.2-0.4c0.1-0.1,0.2-0.2,0.4-0.2c0.1,0,0.3,0.1,0.4,0.2c0.1,0.1,0.2,0.2,0.2,0.4
		c0,0.1-0.1,0.3-0.2,0.4c-0.1,0.1-0.2,0.2-0.4,0.2c-0.1,0-0.3-0.1-0.4-0.2C85.3,85.5,85.2,85.4,85.2,85.3z M85.3,86.4h0.8V91h-0.8
		V86.4z"/>
	<path class="st1" d="M89.6,84h1.3c0.7,0,1.2,0.2,1.6,0.5c0.4,0.3,0.6,0.8,0.6,1.3c0,0.4-0.1,0.8-0.4,1.1c-0.3,0.3-0.7,0.5-1.3,0.7
		l1.8,2.6h-1l-1.7-2.5h-0.2v2.5h-0.8V84z M90.4,84.8v2.1c1.2,0,1.9-0.3,1.9-1.1c0-0.3-0.1-0.5-0.2-0.6c-0.1-0.2-0.3-0.3-0.6-0.3
		C91.2,84.8,90.9,84.8,90.4,84.8z"/>
	<path class="st1" d="M96.3,84h3.4v0.8h-2.6v1.5h2.6v0.8h-2.6v2.1h2.6v0.8h-3.4V84z"/>
	<path class="st1" d="M102.6,83.8l4.6,4.7V84h0.8v6.4l-4.6-4.7v4.4h-0.8V83.8z"/>
	<path class="st1" d="M111.3,84h0.8v3.8c0,0.6,0.1,1,0.4,1.3c0.3,0.3,0.7,0.5,1.1,0.5c0.5,0,0.9-0.1,1.1-0.4
		c0.3-0.3,0.4-0.7,0.4-1.2V84h0.8v3.9c0,0.8-0.2,1.4-0.6,1.8c-0.4,0.5-1,0.7-1.7,0.7c-0.7,0-1.3-0.2-1.8-0.7c-0.4-0.5-0.7-1.1-0.7-2
		V84z"/>
	<path class="st1" d="M119.2,84h3.4v0.8H120v1.5h2.6v0.8H120v2.1h2.6v0.8h-3.4V84z"/>
	<path class="st1" d="M125.1,84h0.9l1.9,4.4l1.9-4.4h0.9l-2.9,6.4L125.1,84z"/>
	<path class="st1" d="M135.1,83.8l2.9,6.4h-0.9l-0.7-1.6h-2.6l-0.7,1.6h-0.9L135.1,83.8z M135.1,85.7l-1,2.2h2L135.1,85.7z"/>
	<path class="st1" d="M145.2,84h3.8v0.8h-1.5v5.3h-0.8v-5.3h-1.5V84z"/>
	<path class="st1" d="M151.8,84h0.8v3.8c0,0.6,0.1,1,0.4,1.3c0.3,0.3,0.7,0.5,1.1,0.5c0.5,0,0.9-0.1,1.1-0.4
		c0.3-0.3,0.4-0.7,0.4-1.2V84h0.8v3.9c0,0.8-0.2,1.4-0.6,1.8c-0.4,0.5-1,0.7-1.7,0.7c-0.7,0-1.3-0.2-1.8-0.7c-0.4-0.5-0.7-1.1-0.7-2
		V84z"/>
	<path class="st1" d="M164.5,84h3.4v0.8h-2.6v1.5h2.6v0.8h-2.6v2.1h2.6v0.8h-3.4V84z"/>
	<path class="st1" d="M174.6,84.7l-0.7,0.5c-0.2-0.2-0.3-0.3-0.5-0.4c-0.1-0.1-0.4-0.1-0.6-0.1c-0.3,0-0.5,0.1-0.7,0.2
		c-0.2,0.1-0.3,0.3-0.3,0.5c0,0.2,0.1,0.4,0.2,0.5c0.2,0.1,0.4,0.3,0.8,0.5c0.4,0.2,0.7,0.3,0.9,0.5c0.2,0.1,0.4,0.3,0.5,0.5
		c0.1,0.2,0.2,0.4,0.3,0.6c0.1,0.2,0.1,0.4,0.1,0.6c0,0.5-0.2,0.9-0.6,1.3c-0.4,0.4-0.8,0.5-1.4,0.5c-0.5,0-1-0.1-1.4-0.4
		c-0.4-0.3-0.7-0.7-0.9-1.3l0.8-0.2c0.3,0.7,0.8,1,1.4,1c0.3,0,0.6-0.1,0.8-0.3c0.2-0.2,0.3-0.4,0.3-0.7c0-0.2-0.1-0.3-0.2-0.5
		c-0.1-0.2-0.2-0.3-0.4-0.4c-0.2-0.1-0.4-0.2-0.8-0.4c-0.3-0.1-0.6-0.3-0.8-0.4c-0.2-0.1-0.3-0.3-0.5-0.4c-0.1-0.2-0.2-0.3-0.3-0.5
		c-0.1-0.2-0.1-0.3-0.1-0.5c0-0.4,0.2-0.8,0.5-1.1c0.4-0.3,0.8-0.5,1.3-0.5c0.3,0,0.7,0.1,1,0.2S174.4,84.4,174.6,84.7z"/>
	<path class="st1" d="M178,84h1.2c0.7,0,1.3,0.2,1.7,0.5s0.6,0.8,0.6,1.3c0,0.5-0.2,1-0.7,1.3c-0.5,0.4-1.1,0.5-2.1,0.5v2.5H178V84z
		 M178.8,84.8v2.2c0.6,0,1.1-0.1,1.4-0.3c0.3-0.2,0.5-0.4,0.5-0.8c0-0.3-0.1-0.5-0.3-0.7C180.1,84.9,179.6,84.8,178.8,84.8z"/>
	<path class="st1" d="M184.6,83.4l0.6-1.3h1.1l-1.1,1.3H184.6z M184.7,84h0.8v6.2h-0.8V84z"/>
	<path class="st1" d="M189,84h1.3c0.7,0,1.2,0.2,1.6,0.5c0.4,0.3,0.6,0.8,0.6,1.3c0,0.4-0.1,0.8-0.4,1.1c-0.3,0.3-0.7,0.5-1.3,0.7
		l1.8,2.6h-1l-1.7-2.5h-0.2v2.5H189V84z M189.9,84.8v2.1c1.2,0,1.9-0.3,1.9-1.1c0-0.3-0.1-0.5-0.2-0.6c-0.1-0.2-0.3-0.3-0.6-0.3
		C190.7,84.8,190.3,84.8,189.9,84.8z"/>
	<path class="st1" d="M195.8,84h0.8v6.2h-0.8V84z"/>
	<path class="st1" d="M199.6,84h3.8v0.8h-1.5v5.3h-0.8v-5.3h-1.5V84z"/>
	<path class="st1" d="M206.3,84h0.8v3.8c0,0.6,0.1,1,0.4,1.3c0.3,0.3,0.7,0.5,1.1,0.5c0.5,0,0.9-0.1,1.1-0.4
		c0.3-0.3,0.4-0.7,0.4-1.2V84h0.8v3.9c0,0.8-0.2,1.4-0.6,1.8c-0.4,0.5-1,0.7-1.7,0.7c-0.7,0-1.3-0.2-1.8-0.7c-0.4-0.5-0.7-1.1-0.7-2
		V84z"/>
	<path class="st1" d="M214.2,89.8c0-0.1,0.1-0.3,0.2-0.4c0.1-0.1,0.2-0.2,0.4-0.2c0.1,0,0.3,0.1,0.4,0.2c0.1,0.1,0.2,0.2,0.2,0.4
		c0,0.1-0.1,0.3-0.2,0.4c-0.1,0.1-0.2,0.2-0.4,0.2c-0.1,0-0.3-0.1-0.4-0.2C214.2,90,214.2,89.9,214.2,89.8z M214.3,84h0.8v4.6h-0.8
		V84z"/>
</g>
<path class="st1" d="M244.1,42.4h-4c0,0-0.1,0-0.1,0c-1.3,0-2.6,0-4.1,0c0.8-1.2,1.5-2.2,2.2-3.3c0.9-1.3,1.8-2.6,2.5-4
	c0.5-0.9-0.1-1.7-1.1-1.6c-0.5,0-0.9,0.2-1.3,0.4c-0.8,0.4-1.5,1-2.1,1.8c-1.4,1.7-2.9,3.5-4.1,5.4c-0.4,0.7-0.9,1.2-1.6,1.3h-0.8
	c0,0-0.1,0-0.1,0c-0.1,0-0.2,0-0.4,0h-9.3c-1.1,0-1.9,0.9-1.9,1.9c0,1.1,0.9,1.9,1.9,1.9h8.8c-0.1,0.1-0.2,0.2-0.2,0.4
	c-1.1,1.8-2.3,3.6-3.4,5.5c-2.6,4.2-5.3,8.3-7.5,12.7c-1,1.9-1.8,3.8-2.1,5.9c-0.3,2.6,1.3,4,3.8,3.3c0.9-0.2,1.7-0.6,2.5-1.1
	c2.3-1.4,4.4-3.1,6.7-4.5c1.3-0.8,1.7-1.7,1.4-3.1c-0.2-0.9-0.9-1.2-1.6-0.7c-1.1,0.8-2.1,1.5-3.2,2.3c-1.8,1.2-3.5,2.5-5.5,3.4
	c-0.2,0.1-0.3,0-0.1-0.2c0-0.6,0.2-1.1,0.4-1.6c0.7-1.8,1.6-3.5,2.5-5.2c3.3-5.9,7.2-11.4,10.9-17h10.9c1.1,0,1.9-0.9,1.9-1.9
	C246,43.3,245.1,42.4,244.1,42.4z"/>
<path class="st1" d="M205.6,70c1.4-0.8,2.7-1.7,4.1-2.5c0.7-0.4,1.4-0.9,2.1-1.3c0.7-0.4,1.4-0.2,1.5,0.7c0.2,1.6,0.2,1.6-1.2,2.5
	c-1.9,1.3-3.9,2.4-5.9,3.5c-0.7,0.4-1.5,0.7-2.3,0.9c-1.5,0.4-2.3-0.3-2.3-1.7c0-0.1,0-0.2,0-0.4c-0.3-0.1-0.5,0.2-0.7,0.3
	c-1.2,0.7-2.5,1.4-3.9,1.6c-1.7,0.2-2.8-0.7-2.9-2.3c0-1.1,0.3-2,0.8-3c1.5-2.8,3.6-5.2,5.8-7.5c1-1,2-1.9,3.1-2.8
	c0.4-0.3,0.8-0.5,1.4-0.5c0.7,0,1.3,0,2,0.1c0.4,0,0.7,0.2,0.8,0.6c0.1,0.4-0.2,0.5-0.5,0.7c-3.7,2.7-6.8,5.9-9.3,9.7
	c-0.3,0.5-0.6,0.9-0.7,1.7c0.5-0.3,0.9-0.5,1.3-0.8c2.9-2,5.4-4.4,8-6.8c1.5-1.4,3-2.8,4.4-4.2c0.5-0.5,1-0.8,1.7-0.7
	c0.4,0.1,0.7,0,1.1,0c0.4,0,0.7,0.1,0.9,0.5c0.2,0.5,0,0.7-0.3,0.9c-2.1,2-4.2,4-6.2,6.1C207.2,66.8,206.3,68.3,205.6,70z"/>
<path class="st2" d="M9.9,24.7c0.4,2.1,0.9,4.2,1.8,6.2c2,4.8,5.6,7.7,10.6,9c3.2,0.8,6.5,1.4,9.6,2.2c1.5,0.4,3.1,0.9,4.5,1.5
	c4.2,1.8,6.3,5.1,6.6,9.6c0.1,1.3,0.1,2.7,0.2,4c0.3,4,2.2,7.2,4.8,10c0.1,0.1,0.2,0.2,0.3,0.4c-0.2-0.1-0.3-0.1-0.5-0.2
	c-3-1.7-4.7-4.3-5.7-7.5c-0.8-2.5-1.4-5.1-2.3-7.5c-0.6-1.4-1.4-2.6-2.8-3.5c-2.3-1.5-4.8-2.6-7.4-3.3c-2.6-0.7-5.2-1.3-7.8-2
	c-5.5-1.7-9.4-5.2-11.6-10.5c-1.1-2.5-1.3-5.1-0.7-7.8C9.7,25.1,9.7,24.9,9.9,24.7z"/>
<path class="st2" d="M8.3,34c0.4,1.3,0.8,2.5,1.5,3.7c2.2,4.2,5.6,7.1,9.7,9.2c3.3,1.7,6.7,2.9,10.1,4.4c2.5,1.1,4.9,2.2,6.9,4
	c1.7,1.6,3,3.4,3.8,5.6c-0.3-0.3-0.6-0.6-0.9-0.9c-2.5-2.3-5.5-3.5-8.7-4.6c-4.2-1.4-8.4-2.7-12.4-4.6c-2.5-1.3-4.9-2.8-6.7-5
	C9.1,42.7,8.2,39,8.3,35.1C8.3,34.7,8.3,34.4,8.3,34z"/>
<path class="st2" d="M40.2,63.2c-4-2.5-8.5-2.7-12.9-3.2c-2-0.2-4-0.5-6-0.8c-4.9-0.8-8.4-3.5-10.9-7.8c-0.5-0.9-1-1.8-1.4-2.9
	c0.9,0.7,1.7,1.3,2.5,1.9c4.2,3.1,8.9,4.9,14.1,5.6c2.4,0.3,4.7,0.8,7,1.5C35.8,58.6,38.3,60.5,40.2,63.2z"/>
<path class="st2" d="M17.5,60.8c2.5,0.9,5.1,1.6,7.8,1.7c2.3,0.1,4.6,0.1,7,0.1c1.9,0,3.7,0.2,5.5,0.9c1.2,0.5,2.3,1.1,3.1,2.4
	c-0.7-0.1-1.2-0.1-1.8-0.1c-2.3-0.1-4.5,0.2-6.7,0.4c-2.1,0.2-4.2,0.6-6.3,0.2c-3.2-0.5-5.9-1.7-7.9-4.4
	C17.8,61.7,17.4,61.3,17.5,60.8L17.5,60.8z"/>
<path class="st2" d="M42.5,69.2c-1.5-0.3-2.7,0.3-3.9,1c-2.5,1.4-5.2,2.2-8.1,1.5c-1.2-0.3-2.3-0.8-3.1-2c0.8,0,1.6,0.1,2.3,0.1
	c2.5,0,4.8-0.7,7.2-1.3c1.3-0.3,2.5-0.6,3.8-0.4C41.7,68.2,42.1,68.5,42.5,69.2z"/>
<path class="st1" d="M32.7,74.8c0.9-0.3,1.5-0.5,2.2-0.7c1.5-0.5,2.8-1.4,4.2-2.2c1.2-0.7,2.4-1.1,3.7-0.6c0.1,0,0.3,0.1,0.5,0.2
	c-1.9,1.1-3.3,2.7-5.2,3.7C36.4,76,34.6,76,32.7,74.8z"/>
<path class="st0" d="M69.2,63.6c-0.2,0.1-0.2,0-0.1-0.1C69.1,63.5,69.1,63.5,69.2,63.6z"/>
<path class="st1" d="M188.2,64.2c-0.2,0.1-0.2,0-0.1-0.1C188.1,64.1,188.1,64.1,188.2,64.2z"/>
<path class="st1" d="M124,57.7c-1.9,0.9-3.1,2.4-4.3,3.9C121.5,60.8,123.8,58.8,124,57.7z"/>
<path class="st1" d="M190.3,42.4c-3.5-0.6-6.9,0-10,1.8c-0.5,0.3-1,0.7-1.4,1.1c-0.3,0.3-0.2,1.1,0.2,1.1c1,0.2,1.9,0.6,2.9,0.2
	c2.1-0.8,4.2-1.5,6.4-1.4c2.2,0.1,4,0.9,5.1,2.8c0.7,1.2,1.1,2.5,1.2,3.9c0.1,2.7-0.6,5.3-1.8,7.7c-3.8,7.7-9.6,13.5-17.3,17.4
	c-3.3,1.7-6.9,2.6-10.7,2.2c-4.9-0.5-8.7-3.6-10.1-8.3c-1-3.4-0.6-6.8,0.7-10.1c4.1-10.3,11.1-17.7,21.8-21.4
	c3.4-1.2,6.8-1.9,10.4-1.3c2.4,0.4,4.6,1.3,5.7,3.5c0.6,1.3,1.5,1.9,2.8,2.3c0.2,0.1,0.3,0.1,0.5,0.2c0.3,0.2,0.6,0,0.8-0.2
	c0.2-0.2,0.3-0.4,0.2-0.7c-0.8-3.2-2.6-5.7-5.6-7.2c-2.9-1.4-5.9-1.6-9-1.3c-5.5,0.7-10.5,2.6-15.1,5.6c-4.8,3.1-8.5,7.3-11.6,12
	c-2.4,3.7-4.3,7.6-4.9,12.1c-0.1,0.4,0,0.9-0.2,1.3c-1-0.3-1-0.3-1.8,0.3c-0.9,0.6-1.7,1.2-2.6,1.8c-0.6-1.2-1.4-2.2-2.1-3.2
	c-0.3-0.5-0.3-0.9,0.1-1.3c0.4-0.4,0.9-0.8,1.3-1.2c0.9-1,1.9-1.9,2.5-3.1c0.5-0.9,0.4-1.9-0.1-2.3c-0.5-0.4-1.2-0.2-2.2,0.3
	c-1.1,0.6-2.3,1.9-3.1,3.1c-1.3,1.8-5.9,5.4-6.4,5.7c-0.9,0.7-1.9,1.3-2.8,2c-0.6-1.2-1.4-2.2-2.1-3.2c-0.4-0.5-0.3-0.9,0.1-1.4
	c0.4-0.4,0.9-0.8,1.3-1.2c0.9-1,1.9-1.9,2.5-3.1c0.4-0.9,0.4-1.9-0.1-2.3c-0.5-0.5-1.3-0.4-2.2,0.3c-1.2,0.8-2.2,1.9-3.1,3.1
	c-1.5,2.1-3.4,3.9-5.4,5.5c-0.6,0.4-1.1,0.9-1.7,1.4c0,0,0,0,0,0c-1.8,1.2-3.6,2.4-5.6,3.3c-0.7,0.3-1.4,0.5-2.2,0.5
	c-0.3,0-0.5-0.1-0.6-0.4c-0.2-0.7,0.3-2,0.9-2.3c2.4-1.2,4.7-2.6,6.8-4.3c0.5-0.4,1-0.9,1.4-1.4c0.8-1,0.9-2.5,0.3-3.5
	c-0.6-1-1.8-1.3-3.2-1c-1,0.3-1.9,0.7-2.7,1.4c-2.8,2.2-4.7,5-6,8.3c-0.3,0.9-0.5,1.8-0.5,2.7c0,2.4,1.2,3.5,3.5,3.5
	c1.1,0,2.2-0.4,3.2-0.8c2.4-1,4.4-2.6,6.6-4.1c0.2-0.1,0.4-0.3,0.5-0.4c0.4-0.3,0.8-0.6,1.2-1c0.7-0.6,1.4-1.2,2.2-1.8
	c0.6,0.9,1.3,1.6,1.7,2.6c0.3,0.8,0.1,1.7-0.5,2.1c-0.8,0.6-1.6,0.5-2.3-0.2c-0.3-0.3-0.6-0.5-1-0.6c-0.7-0.2-1.4-0.3-2,0.4
	c-0.5,0.5-0.5,1.3-0.1,2.1c0.4,0.7,1,1.1,1.7,1.4c1.9,0.7,3.6,0.3,5.2-0.8c1.8-1.2,9.4-6.4,10-6.9c0,0,0.9,0.8,1.1,1.3
	c0.2,0.3,0.3,0.6,0.5,0.8c0.3,0.5,0.4,1.1,0.3,1.8c-0.1,0.7-0.6,0.9-1.2,1.1c-0.5,0.2-1.1,0.2-1.5-0.3c-0.3-0.4-0.7-0.6-1.1-0.8
	c-0.7-0.3-1.7-0.1-2.1,0.3c-0.5,0.5-0.5,1.4-0.1,2.1c0.5,0.8,1.2,1.3,2.1,1.5c1.9,0.5,3.6,0,5.2-1.1c2-1.4,4.1-2.8,6.2-4.2
	c0,0.2,0,0.2,0,0.3c0.4,6.8,4.9,12.1,11.6,13.6c4.3,0.9,8.4,0.3,12.4-1.3c4.4-1.7,8.2-4.5,11.6-7.7c4.2-3.9,7.6-8.4,9.6-13.8
	c1.3-3.3,1.7-6.7,0.7-10.2C196.2,45.4,194,43.1,190.3,42.4z M121.6,60.5c-0.2,0.8-2,2.5-3.5,3.1C119.1,62.5,120.1,61.2,121.6,60.5z"
	/>
<path class="st3" d="M97.6,14.5c-0.1,0.2-0.2,0.3-0.2,0.3s0.1,0.1,0.3,0.2c0-0.1,0-0.2,0-0.3C97.7,14.6,97.7,14.6,97.6,14.5z"/>
<path class="st3" d="M100.1,15c0.2-0.1,0.3-0.2,0.3-0.2s-0.1-0.2-0.3-0.4c0,0,0,0,0,0.1C100.1,14.6,100.1,14.8,100.1,15z"/>
<path class="st3" d="M99.6,15.2c0.1,0,0.3-0.1,0.5-0.1c0,0,0-0.1,0-0.1C99.9,15,99.8,15.1,99.6,15.2z"/>
<path class="st3" d="M98.2,15.2C98,15.1,97.9,15,97.8,15c0,0.1,0,0.1,0,0.2C97.9,15.2,98.1,15.2,98.2,15.2
	C98.2,15.2,98.2,15.2,98.2,15.2z"/>
<path class="st3" d="M97.8,14.7c0,0.1,0,0.2,0,0.3c0.1,0.1,0.3,0.2,0.4,0.3C98.1,15.1,97.9,14.9,97.8,14.7z"/>
<path class="st3" d="M100.1,14.4c-0.2,0.3-0.4,0.6-0.6,0.9c0,0,0.1,0,0.1,0c0.2-0.1,0.4-0.2,0.5-0.3
	C100.1,14.8,100.1,14.6,100.1,14.4z"/>
<path class="st1" d="M111.1,33.9c-2-0.8-3.1-2.4-4.1-4.2c-0.7-1.2-1-2.5-0.7-3.9c0.1-0.7,0.2-1.4,0-2c-0.2-0.7-0.1-1.4,0.1-2
	c0.7-2.1,0.1-3.9-1.2-5.6c-1.1-1.4-2.5-2.3-4.1-3c-3.1-1.4-6.3-1.9-9.6-1.8c-1.9,0-3.8,0.2-5.6,0.5c-6.8,1.1-13.2,3.3-19.4,6.2
	c-7.3,3.4-14.2,7.4-20,13c-2,1.9-3.7,4-4.7,6.6c-1.2,3.1-0.5,5.6,2.1,7.6c0,0,0.1,0.1,0.2,0.1c0.2,0.2,0.5,0.4,0.8,0.6
	c0.3,0.2,0.7,0.4,1.1,0.5l0,0l4.7,2c5.9,2.8,13.3,7.1,15.6,11.1c0,0,0,0,0,0.1c2,2.8,3.2,6.3,3.2,10c0,8.2-5.7,15-13.3,16.9
	c-0.1,0.1-0.2,0.2-0.2,0.2c-1.2,0.3-2.4,0.4-3.6,0.4c-0.2,0-0.3,0-0.5,0c-0.3,0-0.7,0-1-0.1c-2.9-0.3-5.6-1.3-7.9-3
	c-2.9-2.4-4.7-6-4.7-10.1c0-0.1,0-0.2,0-0.2l-3.4,1c-0.1,0.3-0.2,0.7-0.3,1.1c0.7,3.9,2.3,7.5,5.4,9.5c3.3,2.8,8.6,3.7,13.2,3.8
	c0,0,0,0,0,0c0,0,0,0,0,0c0,0,0.1,0,0.1,0c0,0,0.1,0,0.1,0c0,0,0,0,0,0c11.3-0.1,20.5-9.3,20.5-20.7c0-5.7-2.3-10.9-6.1-14.7
	c0,0,0,0,0,0C64,49.7,56,46.6,51.2,44.5l0,0c-0.1,0-0.1-0.1-0.2-0.1c-0.5-0.2-1-0.5-1.4-0.7c-1.6-0.8-2.7-1.6-3.3-2.3
	c-0.6-1-0.6-2.1,0-3.4c0.3-0.5,0.6-1,0.9-1.5c2.8-4.1,6.5-7.1,10.6-9.8c7-4.4,14.6-7.3,22.6-9.2c3-0.7,6-1.4,9.1-1.3
	c4.9,0.1,6.4,1.9,7.3,5.5c0.3,1,0.5,2.1,1,3c0.8,1.5,1.8,3,3.5,3.4c1.7,0.4,2.7,1.4,3.6,2.8c0.8,1.2,1.5,2.4,2.6,3.4
	c0.8,0.7,1.8,1.3,2.9,1.5c0.6,0.1,1.3,0.1,1.5-0.6C112.2,34.4,111.6,34.1,111.1,33.9z"/>
<path class="st1" d="M111.6,65.3c0-0.1,0-0.1,0-0.2c-0.1-0.6-0.9-1-1.4-0.7c-0.3,0.2-0.7,0.5-1,0.7c-2.1,1.7-4.3,3.4-6.6,4.8
	c-0.4,0.2-0.8,0.6-1.4,0.5c0.7-1.2,1.4-2.2,2.3-3.1c1.9-2,3.8-4,5.7-6c0.8-0.8,0.9-1.7,0.7-2.8c-0.2-1.1-0.9-1.4-1.8-0.8
	c-0.3,0.2-0.5,0.4-0.8,0.7c-0.7,0.6-1.5,1-2.4,1c-0.3,0-0.6,0.2-0.8-0.2c-0.2-0.4,0.2-0.5,0.3-0.8c0.9-1.1,1.4-2.3,1.6-3.7
	c0.1-0.6-0.1-1.2-0.6-1.6c-0.5-0.3-1-0.2-1.5,0.1c-1.6,1.1-2.7,2.6-3.2,4.5c-0.1,0.4-0.2,0.8-0.5,1.1c-1.4,1.6-4.7,4.6-6.9,6.3
	c-0.8,0.6-1.5,1.1-2.3,1.7c-1.8,1.2-3.5,2.5-5.5,3.4c-0.2,0.1-0.3,0-0.1-0.2c0-0.6,0.2-1.1,0.4-1.6c0.7-1.8,1.6-3.5,2.5-5.2
	c3.3-5.9,7.2-11.4,10.8-17h9.9c1.1,0,2-0.9,2-2c0-1.1-0.9-2-2-2h-3c0,0-0.1,0-0.1,0c-1.3,0-2.6,0-4,0c0.8-1.2,1.5-2.2,2.2-3.3
	c0.4-0.6,0.8-1.2,1.2-1.8l-5,0.6c-0.8,1.1-1.6,2.1-2.3,3.3c-0.4,0.7-0.9,1.2-1.6,1.3h-0.8c0,0-0.1,0-0.1,0c-0.6-0.1-1-0.1-1.5,0
	h-5.5c-1.1,0-2,0.9-2,2c0,1.1,0.9,2,2,2h6.1c-0.1,0.1-0.1,0.2-0.2,0.3c-1.1,1.8-2.3,3.6-3.5,5.4c-2.6,4.2-5.3,8.3-7.5,12.7
	c-1,1.9-1.8,3.8-2.1,5.9c-0.3,2.6,1.3,4,3.8,3.3c0.9-0.2,1.7-0.6,2.5-1.1c0.5-0.3,1-0.6,1.4-1c4.8-2.8,10.7-7.9,12.4-9.4
	c0.3,0.2,0.6,0.4,1.1,0.7c-0.3,0.3-0.6,0.4-0.9,0.7c-1.3,1.2-2.4,2.5-3.3,4c-0.6,1-1.1,2.1-1.1,3.4c0,2,1.4,3.2,3.4,2.9
	c0.9-0.1,1.8-0.5,2.6-0.9c2.4-1.4,4.6-3.1,6.9-4.8C111.5,67.7,112,66.7,111.6,65.3z"/>
<g>
	<path class="st4" d="M127.8,46.6c-0.2-0.8-0.3-1.8-0.3-2.8c0-1,0.1-1.9,0.2-2.7c-3.9-3.3-7.2-3-7.2-3s-0.5,3.4,2,7.5
		c0.8,0,1.7,0.1,2.7,0.2C126.2,46,127,46.3,127.8,46.6z"/>
	<path class="st4" d="M129.8,51.4c0-0.1,0-0.1,0-0.2c-0.2-0.1-0.4-0.2-0.4-0.2s0.1-0.1,0.2-0.3c-0.7-0.9-1.4-2.3-1.8-4
		c-0.8-0.3-1.6-0.6-2.6-0.7c-1-0.2-1.9-0.2-2.7-0.2c0.5,0.8,1.1,1.7,1.9,2.5C125.8,49.9,128,50.8,129.8,51.4z"/>
	<path class="st4" d="M139.9,45.6c-0.5,0.8-1.1,1.7-1.9,2.5c-1.5,1.7-3.7,2.7-5.4,3.2c-0.2,0.1-0.4,0.1-0.6,0.2c-0.1,0-0.1,0-0.2,0
		c0,0,0,0.1-0.1,0.1c0,0.1-0.1,0.1-0.1,0.2c-0.1,0.1-0.2,0.2-0.2,0.3c1.7,0.8,4.2,1.6,6.6,1.2c6.8-1.1,9.4-5.3,9.4-5.3
		S145,45.6,139.9,45.6z"/>
	<path class="st4" d="M129.6,50.6c-0.1,0.2-0.2,0.3-0.2,0.3s0.1,0.1,0.4,0.2c0-0.1,0-0.2,0-0.4C129.7,50.7,129.6,50.7,129.6,50.6z"
		/>
	<path class="st4" d="M134.5,46.6c0.8-0.3,1.7-0.6,2.7-0.8c1-0.2,1.9-0.2,2.7-0.2c2.5-4.1,2-7.5,2-7.5s-3.4-0.3-7.3,3
		c0.2,0.9,0.2,1.9,0.2,3C134.9,45,134.7,45.8,134.5,46.6z"/>
	<path class="st4" d="M134.5,46.6c-0.4,1.5-1.2,2.8-1.8,3.8c0.2,0.3,0.3,0.5,0.3,0.5s-0.1,0.1-0.4,0.2c0,0.1,0,0.1,0,0.2
		c1.7-0.5,3.9-1.4,5.4-3.2c0.8-0.9,1.4-1.7,1.9-2.5c-0.8,0-1.7,0.1-2.7,0.2C136.2,46.1,135.3,46.3,134.5,46.6z"/>
	<path class="st4" d="M130.6,51.8c-0.1-0.1-0.2-0.2-0.3-0.3c-0.2,0-0.4-0.1-0.6-0.2c-1.7-0.5-3.9-1.4-5.4-3.2
		c-0.8-0.9-1.4-1.7-1.9-2.5c-5.1-0.1-7.6,2.3-7.6,2.3s2.6,4.2,9.4,5.3c2.4,0.4,4.9-0.4,6.6-1.2C130.8,52,130.7,51.9,130.6,51.8z"/>
	<path class="st4" d="M132.6,51.2c0.2-0.1,0.4-0.2,0.4-0.2s-0.1-0.2-0.3-0.5c0,0,0,0,0,0.1C132.6,50.7,132.6,51,132.6,51.2z"/>
	<path class="st4" d="M132,51.5c0.2,0,0.4-0.1,0.6-0.2c0-0.1,0-0.1,0-0.2C132.5,51.3,132.3,51.4,132,51.5z"/>
	<path class="st4" d="M130.3,51.5c-0.2-0.1-0.4-0.2-0.5-0.3c0,0.1,0,0.1,0,0.2C130,51.4,130.1,51.5,130.3,51.5
		C130.3,51.5,130.3,51.5,130.3,51.5z"/>
	<path class="st4" d="M129.7,50.8c0,0.1,0,0.3,0,0.4c0.1,0.1,0.3,0.2,0.5,0.3C130.1,51.3,129.9,51.1,129.7,50.8z"/>
	<path class="st4" d="M130.3,51.5c-0.2-0.2-0.4-0.4-0.6-0.7c-0.1-0.1-0.1-0.1-0.2-0.2c-0.7-0.9-1.4-2.3-1.8-4
		c-0.8-0.3-1.6-0.6-2.6-0.7c-1-0.2-1.9-0.2-2.7-0.2c0.5,0.8,1.1,1.7,1.9,2.5c1.5,1.7,3.7,2.7,5.4,3.2
		C130,51.4,130.1,51.5,130.3,51.5C130.3,51.5,130.3,51.5,130.3,51.5z"/>
	<path class="st4" d="M132.6,50.5c-0.3,0.4-0.6,0.8-0.8,1.1c0.1,0,0.1,0,0.2,0c0.2-0.1,0.4-0.2,0.6-0.3
		C132.6,51,132.6,50.7,132.6,50.5z"/>
	<path class="st4" d="M137.2,45.9c-1,0.2-1.9,0.4-2.7,0.8c-0.4,1.5-1.2,2.8-1.8,3.8c0,0,0,0,0,0.1c-0.3,0.4-0.6,0.8-0.8,1.1
		c0.1,0,0.1,0,0.2,0c0.2,0,0.4-0.1,0.6-0.2c1.7-0.5,3.9-1.4,5.4-3.2c0.8-0.9,1.4-1.7,1.9-2.5C139.1,45.7,138.2,45.7,137.2,45.9z"/>
	<path class="st2" d="M134.6,41.1c-0.8-4.9-3.5-7.1-3.5-7.1s-2.7,2-3.5,7.1c-0.1,0.8-0.2,1.7-0.2,2.7c0,1,0.1,2,0.3,2.8
		c0.4,1.7,1.1,3,1.8,4c0.1,0.1,0.1,0.1,0.2,0.2c0.2,0.3,0.4,0.5,0.6,0.7c0,0,0,0,0,0c0.1,0.1,0.2,0.2,0.3,0.3
		c0.1,0.1,0.2,0.2,0.3,0.3c0.2,0.2,0.3,0.3,0.3,0.3s0.1-0.1,0.2-0.3c0.1-0.1,0.1-0.2,0.2-0.3c0,0,0.1-0.1,0.1-0.2c0,0,0-0.1,0.1-0.1
		c0.2-0.3,0.5-0.6,0.8-1.1c0,0,0,0,0-0.1c0.7-1,1.4-2.3,1.8-3.8c0.2-0.8,0.4-1.6,0.4-2.5C134.9,43,134.8,42,134.6,41.1z"/>
</g>
</svg>
